<?xml version="1.0" standalone="no"?>
<!DOCTYPE svg PUBLIC "-//W3C//DTD SVG 20010904//EN"
 "http://www.w3.org/TR/2001/REC-SVG-20010904/DTD/svg10.dtd">
<svg version="1.0" xmlns="http://www.w3.org/2000/svg"
 width="389.000000pt" height="389.000000pt" viewBox="0 0 389.000000 389.000000"
 preserveAspectRatio="xMidYMid meet">
<g transform="translate(0.000000,389.000000) scale(0.100000,-0.100000)"
fill="#000000" stroke="none">
<path d="M1710 3875 c-618 -78 -1150 -432 -1458 -973 -311 -545 -334 -1237
-58 -1807 325 -670 1007 -1096 1753 -1095 690 1 1317 359 1673 954 55 92 155
304 147 313 -3 2 -20 -5 -38 -17 -19 -11 -63 -29 -98 -40 -61 -19 -94 -20
-1070 -20 -875 0 -1015 2 -1066 15 -223 58 -395 249 -427 472 -55 385 315 724
685 628 32 -8 60 -15 63 -15 3 0 14 21 26 48 107 244 346 430 613 477 110 19
160 19 270 0 325 -57 588 -306 664 -630 l12 -50 107 0 c103 0 110 -1 185 -37
49 -24 100 -58 137 -94 l60 -57 0 52 c0 77 -19 233 -41 346 -78 392 -308 788
-613 1056 -417 367 -980 542 -1526 474z"/>
<path d="M2430 2639 c-262 -68 -453 -281 -485 -542 -4 -32 -11 -60 -16 -63 -5
-3 -26 8 -47 24 -160 126 -376 120 -520 -13 -132 -122 -166 -312 -85 -472 36
-72 126 -155 200 -185 l58 -23 1025 0 1025 0 51 27 c54 28 112 86 140 140 11
21 19 64 22 119 6 110 -17 168 -94 238 -113 104 -265 109 -405 14 -24 -16 -49
-32 -54 -35 -7 -4 -9 30 -7 100 4 131 -14 225 -62 325 -136 279 -449 424 -746
346z"/>
</g>
</svg>